<svg version="1.1" id="Layer_1" xmlns="http://www.w3.org/2000/svg" x="0" y="0" viewBox="0 0 512 512" xml:space="preserve"><style>.st3{opacity:.24;fill:#d58128}</style><g id="XMLID_22_"><linearGradient id="XMLID_2_" gradientUnits="userSpaceOnUse" x1="256" y1="6.303" x2="256" y2="505.697"><stop offset="0" stop-color="#fdd900"/><stop offset=".775" stop-color="#e29f25"/></linearGradient><path id="XMLID_420_" d="M502 334.9c-89.3 26.8-189.9 5.7-260.4-64.8-64.9-64.9-88-155.2-70.4-238.8 0-.4-.1-.7-.1-1.1 3.3-10.6 2.7-20.3-3.9-23.1-6.8-2.9-22 2.9-35.1 13-17.6 10.4-34.2 23.1-49.4 38.2-102.4 102.4-102.4 268.3 0 370.7 102.3 102.3 268.2 102.4 370.6 0 23-22.9 40.2-49.3 52.6-77.2.3-7.2-1-13.1-3.9-16.9z" fill="url(#XMLID_2_)"/><path id="XMLID_419_" d="M237.5 499.4c55.6 6.6 121.4-5.2 162.8-38.7-42.3 14.6-97.5 31.3-158.7 24-61.1-7.3-92.7-22.7-125.7-39.1 26.7 22.8 65.2 47 121.6 53.8z" opacity=".5" fill="#d58128"/><path id="XMLID_412_" d="M469.7 343.2c-64.7 17.2-171.3 2.6-236.4-60.4-65-63-73.3-154.8-68.2-182.9 4.7 30.8 18.3 123.6 77.8 175.9 58.3 51.3 162.6 78.7 226.8 67.4z" opacity=".5" fill="#fdd900"/><path id="XMLID_410_" class="st3" d="M69.4 255.6c-27.6-10.5-32.5-54.7-1.5-62.5 25.3-6.3 59-.7 60.1 31 1.4 35.3-31.6 41.8-58.6 31.5z"/><path id="XMLID_232_" class="st3" d="M112.5 171.5c-10.1-3.8-11.9-19.9-.5-22.8 9.2-2.3 21.5-.2 21.9 11.3.5 12.9-11.5 15.3-21.4 11.5z"/><path id="XMLID_231_" class="st3" d="M140.2 281c-10.1-3.8-11.9-19.9-.5-22.8 9.2-2.3 21.5-.2 21.9 11.3.5 12.9-11.6 15.3-21.4 11.5z"/></g></svg>