<svg version="1.1" id="Layer_1" xmlns="http://www.w3.org/2000/svg" x="0" y="0" viewBox="0 0 512 512" xml:space="preserve"><style>.st3{opacity:.19;fill:#d58128;enable-background:new}.st4{fill:#2a2a2a}</style><g id="XMLID_58_"><linearGradient id="XMLID_2_" gradientUnits="userSpaceOnUse" x1="134.734" y1="8.413" x2="134.734" y2="262.2" gradientTransform="matrix(-1 0 0 1 269.379 0)"><stop offset="0" stop-color="#feda00"/><stop offset=".775" stop-color="#e2a025"/></linearGradient><path id="XMLID_439_" d="M9.7 175.5c45.4 13.6 96.5 2.9 132.3-32.9 33-33 44.7-78.9 35.8-121.4v-.6c-1.7-5.4-1.4-10.3 2-11.8s11.2 1.5 17.8 6.6c8.9 5.3 17.4 11.7 25.1 19.4 52 52 52 136.4 0 188.4s-136.3 52-188.4 0C22.7 211.6 14 198.2 7.6 184c-.1-3.6.6-6.6 2.1-8.5z" fill="url(#XMLID_2_)"/><path id="XMLID_438_" d="M144.1 259.1c-28.3 3.4-61.7-2.6-82.7-19.7 21.5 7.4 49.6 15.9 80.6 12.2 31.1-3.7 47.1-11.5 63.9-19.9-13.6 11.6-33.1 23.9-61.8 27.4z" opacity=".5" fill="#d58128"/><path id="XMLID_437_" d="M26.1 179.7c32.9 8.7 87.1 1.3 120.1-30.7 33.1-32 37.3-78.7 34.7-93-2.4 15.6-9.3 62.8-39.6 89.4-29.6 26.1-82.6 40-115.2 34.3z" opacity=".5" fill="#fdd900"/><path id="XMLID_400_" class="st3" d="M231.5 115.2c14-5.3 16.5-27.8.7-31.8-12.8-3.2-30-.3-30.6 15.7-.6 18 16.2 21.3 29.9 16.1z"/><path id="XMLID_399_" class="st3" d="M209.6 72.4c5.1-1.9 6-10.1.3-11.6-4.7-1.2-10.9-.1-11.1 5.7-.3 6.6 5.8 7.8 10.8 5.9z"/><path id="XMLID_62_" class="st3" d="M195.6 128.1c5.1-1.9 6-10.1.3-11.6-4.7-1.2-10.9-.1-11.1 5.7-.4 6.6 5.7 7.8 10.8 5.9z"/></g><g id="XMLID_78_"><path id="XMLID_637_" class="st4" d="M416.7 177.4c-12 0-23.5 2.5-34 6.8C359.1 138 311.5 106 256 106s-103.1 32-126.7 78.2c-10.5-4.3-21.9-6.8-34-6.8-49.3 0-89.3 40-89.3 89.3S46 356 95.3 356c19.1 0 36.8-6.1 51.3-16.4 26.2 31.6 65.2 52.1 109.4 52.1s83.2-20.5 109.4-52.1c14.5 10.2 32.2 16.4 51.3 16.4 49.3 0 89.3-40 89.3-89.3s-40-89.3-89.3-89.3z"/><path id="XMLID_636_" d="M267.8 254.6c-96.2-9.7-186.3 3.7-257.5 33.7 8.9 40 44.5 69.9 87.1 69.9 19.1 0 36.8-6.1 51.3-16.4 26.2 31.6 65.2 52.1 109.4 52.1s83.2-20.5 109.4-52.1c14.5 10.2 32.2 16.4 51.3 16.4 28.6 0 54-13.5 70.4-34.5-60.6-35.4-136.9-60.6-221.4-69.1z" opacity=".05" fill="#a7a9ac"/><path id="XMLID_635_" d="M416.7 191.7c-12 0-23.5 2.5-34 6.8-23.7-46.2-71.2-78.2-126.7-78.2s-103.1 32-126.7 78.2c-10.5-4.3-21.9-6.8-34-6.8C46 191.7 6 231.7 6 281s40 89.3 89.3 89.3c19.1 0 36.8-6.1 51.3-16.4C172.8 385.5 211.8 406 256 406s83.2-20.5 109.4-52.1c14.5 10.2 32.2 16.4 51.3 16.4 49.3 0 89.3-40 89.3-89.3s-40-89.3-89.3-89.3z" fill="#7a7a7a"/><path id="XMLID_541_" class="st4" d="M156.2 247.5c7.5 0 14.5 1.5 21 4.2 14.6-28.6 44-48.3 78.3-48.3s63.7 19.8 78.3 48.3c6.5-2.7 13.6-4.2 21-4.2 27.9 0 50.9 20.7 54.6 47.6.3-2.5.6-5 .6-7.5 0-30.5-24.7-55.2-55.2-55.2-7.4 0-14.5 1.5-21 4.2-14.6-28.6-44-48.3-78.3-48.3s-63.7 19.8-78.3 48.3c-6.5-2.7-13.5-4.2-21-4.2-30.5 0-55.2 24.7-55.2 55.2 0 2.6.2 5.1.6 7.5 3.6-26.9 26.6-47.6 54.6-47.6z"/></g><linearGradient id="SVGID_1_" gradientUnits="userSpaceOnUse" x1="65.144" y1="35.107" x2="65.144" y2="92.17"><stop offset="0" stop-color="#feda00"/><stop offset=".775" stop-color="#e2a025"/></linearGradient><path fill="url(#SVGID_1_)" d="M65.1 48l18.6-12.9-6.6 21.6 18 13.7-22.5.4-7.5 21.4-7.4-21.4-22.6-.4 18-13.7-6.5-21.6z"/></svg>