<svg xmlns="http://www.w3.org/2000/svg" viewBox="0 0 511.999 511.999"><path d="M453.263 241.214c0-19.372-6.028-37.835-17.434-53.415L362.755 79.32l-33.486 49.71L242.346 0 94.31 219.753c-23.275 31.674-35.574 69.228-35.574 108.636 0 101.243 82.367 183.61 183.61 183.61s183.61-82.367 183.61-183.61c0-7.11-.42-14.234-1.234-21.272 17.558-16.519 28.541-39.951 28.541-65.903zM242.346 481.813c-84.599 0-153.424-68.826-153.424-153.424 0-33.041 10.344-64.52 29.913-91.032l.784-1.069.146-.292L242.346 54.028l68.724 102.017-21.391 31.755c-11.406 15.581-17.433 34.043-17.433 53.415 0 49.907 40.602 90.508 90.509 90.508a90.069 90.069 0 0032.987-6.224c.017.963.029 1.927.029 2.89 0 84.598-68.826 153.424-153.425 153.424zm120.41-180.277c-33.263 0-60.323-27.061-60.323-60.322 0-12.998 4.065-25.373 11.755-35.787l.779-1.06.147-.293 47.642-70.724 47.64 70.723.152.304.775 1.049c7.69 10.415 11.755 22.789 11.755 35.787 0 33.264-27.06 60.323-60.322 60.323z"/></svg>