<svg xmlns="http://www.w3.org/2000/svg" viewBox="0 0 512 512"><path d="M240 21.888v180.224l96-12V33.888zM449.984 48.128L400 41.888v140.256l49.984-6.24c8-1.024 14.016-7.84 14.016-15.904V64c0-8.064-6.016-14.88-14.016-15.872zM65.984.128c-.32-.032-.608.096-.928.096C64.672.192 64.384 0 64 0c-1.024 0-1.92.384-2.88.576-.8.16-1.6.224-2.368.48-1.376.48-2.56 1.248-3.744 2.048-.512.352-1.12.48-1.6.896-.128.096-.16.288-.288.384-1.152 1.088-2.016 2.432-2.784 3.808-.288.48-.736.864-.96 1.408C48.512 11.552 48 13.696 48 16v480c0 8.832 7.168 16 16 16s16-7.168 16-16V222.112l96-12V13.888L65.984.128z"/></svg>