<svg enable-background="new 0 0 437.276 437.276" height="512" viewBox="0 0 437.276 437.276" width="512" xmlns="http://www.w3.org/2000/svg">

<path d="m396.234 122.477c0-.997 0-1.996 0-2.993-.072-25.927-21.147-46.885-47.073-46.815-9.143.025-18.079 2.72-25.712 7.752-21.553-14.409-50.706-8.619-65.117 12.935-5.169 7.732-7.926 16.826-7.918 26.128-.05.981-.05 1.963 0 2.943-23.079 6.475-36.54 30.433-30.065 53.513s30.433 36.54 53.513 30.065c5.555-1.558 10.745-4.21 15.265-7.798 16.659 12.438 39.515 12.438 56.172 0 17.684 18.959 47.389 19.992 66.349 2.309s19.992-47.389 2.308-66.349c-4.917-5.27-10.98-9.34-17.722-11.889z" fill="rgb(42, 135, 241)"/>
<path d="m419.782 262.709c-38.728 91.972-144.681 135.134-236.652 96.405s-135.135-144.681-96.407-236.652c19.553-46.434 57.605-82.595 104.974-99.759-38.681 92.021 4.56 197.976 96.581 236.657 41.859 17.594 88.804 18.789 131.504 3.349z" fill="rgb(241, 221, 42)"/>
<path d="m177.58 323.72c0-.997 0-1.996 0-2.993-.065-25.981-21.179-46.991-47.16-46.926-9.225.024-18.24 2.758-25.924 7.865-21.659-14.299-50.809-8.334-65.109 13.325-5.043 7.638-7.745 16.582-7.776 25.736v2.943c-23.067 6.517-36.482 30.501-29.965 53.567 6.517 23.067 30.501 36.482 53.567 29.965 5.516-1.558 10.669-4.194 15.159-7.755 16.635 12.472 39.477 12.573 56.222.25 17.71 18.935 47.417 19.926 66.352 2.216s19.926-47.417 2.216-66.352c-4.909-5.25-10.96-9.302-17.682-11.842h.1z" fill="rgb(42, 135, 241)"/>

</svg>