<svg enable-background="new 0 0 512.001 512.001" height="512" viewBox="0 0 512.001 512.001" width="512" xmlns="http://www.w3.org/2000/svg">

  <g fill="rgb(114, 178, 251)">
    <path d="m215.986 424.001c-3.05 0-6.133-.87-8.86-2.688-7.353-4.902-9.34-14.836-4.438-22.188l16-24c4.902-7.353 14.837-9.339 22.188-4.438 7.353 4.902 9.34 14.836 4.438 22.188l-16 24c-3.084 4.625-8.158 7.126-13.328 7.126z"/>
    <path d="m79.986 424.001c-3.05 0-6.133-.87-8.86-2.688-7.353-4.902-9.34-14.836-4.438-22.188l16-24c4.901-7.353 14.837-9.339 22.188-4.438 7.353 4.902 9.34 14.836 4.438 22.188l-16 24c-3.084 4.625-8.158 7.126-13.328 7.126z"/>
    <path d="m367.986 424.001c-3.05 0-6.133-.87-8.86-2.688-7.353-4.902-9.34-14.836-4.438-22.188l16-24c4.902-7.353 14.836-9.339 22.188-4.438 7.353 4.902 9.34 14.836 4.438 22.188l-16 24c-3.084 4.625-8.158 7.126-13.328 7.126z"/>
    <path d="m215.986 512.001c-3.05 0-6.133-.87-8.86-2.688-7.353-4.902-9.34-14.836-4.438-22.188l16-24c4.902-7.353 14.837-9.339 22.188-4.438 7.353 4.902 9.34 14.836 4.438 22.188l-16 24c-3.084 4.625-8.158 7.126-13.328 7.126z"/>
    <path d="m287.986 456.001c-3.05 0-6.133-.87-8.86-2.688-7.353-4.902-9.34-14.836-4.438-22.188l16-24c4.901-7.353 14.837-9.338 22.188-4.438 7.353 4.902 9.34 14.836 4.438 22.188l-16 24c-3.084 4.625-8.158 7.126-13.328 7.126z"/>
    <path d="m359.986 512.001c-3.05 0-6.133-.87-8.86-2.688-7.353-4.902-9.34-14.836-4.438-22.188l16-24c4.901-7.353 14.836-9.339 22.188-4.438 7.353 4.902 9.34 14.836 4.438 22.188l-16 24c-3.084 4.625-8.158 7.126-13.328 7.126z"/>
    <path d="m143.986 456.001c-3.05 0-6.133-.87-8.86-2.688-7.353-4.902-9.34-14.836-4.438-22.188l16-24c4.901-7.353 14.836-9.338 22.188-4.438 7.353 4.902 9.34 14.836 4.438 22.188l-16 24c-3.084 4.625-8.158 7.126-13.328 7.126z"/>
    <path d="m71.986 512.001c-3.05 0-6.133-.87-8.86-2.688-7.353-4.902-9.34-14.836-4.438-22.188l16-24c4.901-7.353 14.837-9.339 22.188-4.438 7.353 4.902 9.34 14.836 4.438 22.188l-16 24c-3.084 4.625-8.158 7.126-13.328 7.126z"/>
  </g>
  <g fill="rgb(42, 135, 241)">
    <path d="m245.311 392.88-16 24c-3.08 4.62-8.15 7.12-13.32 7.12-3.05 0-6.14-.87-8.87-2.69-2.15-1.43-3.83-3.29-5.01-5.39 2.47 1.4 5.18 2.08 7.87 2.08 5.17 0 10.25-2.5 13.33-7.13l16-24c3.47-5.2 3.49-11.7.58-16.79.34.19.67.39.99.61 7.35 4.9 9.33 14.83 4.43 22.19z"/>
    <path d="m109.311 392.88-16 24c-3.08 4.62-8.15 7.12-13.32 7.12-3.05 0-6.14-.87-8.87-2.69-2.15-1.43-3.83-3.29-5.01-5.39 2.47 1.4 5.18 2.08 7.87 2.08 5.17 0 10.25-2.5 13.33-7.13l16-24c3.47-5.2 3.49-11.7.58-16.79.34.19.67.39.99.61 7.35 4.9 9.33 14.83 4.43 22.19z"/>
    <path d="m397.311 392.88-16 24c-3.08 4.62-8.15 7.12-13.32 7.12-3.05 0-6.14-.87-8.87-2.69-2.15-1.43-3.83-3.29-5.01-5.39 2.47 1.4 5.18 2.08 7.87 2.08 5.17 0 10.25-2.5 13.33-7.13l16-24c3.47-5.2 3.49-11.7.58-16.79.34.19.67.39.99.61 7.35 4.9 9.33 14.83 4.43 22.19z"/>
    <path d="m245.311 480.88-16 24c-3.08 4.62-8.15 7.12-13.32 7.12-3.05 0-6.14-.87-8.87-2.69-2.15-1.43-3.83-3.29-5.01-5.39 2.47 1.4 5.18 2.08 7.87 2.08 5.17 0 10.25-2.5 13.33-7.13l16-24c3.47-5.2 3.49-11.7.58-16.79.34.19.67.39.99.61 7.35 4.9 9.33 14.83 4.43 22.19z"/>
    <path d="m317.311 424.88-16 24c-3.08 4.62-8.15 7.12-13.32 7.12-3.05 0-6.14-.87-8.87-2.69-2.15-1.43-3.83-3.29-5.01-5.39 2.47 1.4 5.18 2.08 7.87 2.08 5.17 0 10.25-2.5 13.33-7.13l16-24c3.47-5.2 3.49-11.7.58-16.79.34.19.67.39.99.61 7.35 4.9 9.33 14.83 4.43 22.19z"/>
    <path d="m389.311 480.88-16 24c-3.08 4.62-8.15 7.12-13.32 7.12-3.05 0-6.14-.87-8.87-2.69-2.15-1.43-3.83-3.29-5.01-5.39 2.47 1.4 5.18 2.08 7.87 2.08 5.17 0 10.25-2.5 13.33-7.13l16-24c3.47-5.2 3.49-11.7.58-16.79.34.19.67.39.99.61 7.35 4.9 9.33 14.83 4.43 22.19z"/>
    <path d="m173.311 424.88-16 24c-3.08 4.62-8.15 7.12-13.32 7.12-3.05 0-6.14-.87-8.87-2.69-2.15-1.43-3.83-3.29-5.01-5.39 2.47 1.4 5.18 2.08 7.87 2.08 5.17 0 10.25-2.5 13.33-7.13l16-24c3.47-5.2 3.49-11.7.58-16.79.34.19.67.39.99.61 7.35 4.9 9.33 14.83 4.43 22.19z"/>
    <path d="m101.311 480.88-16 24c-3.08 4.62-8.15 7.12-13.32 7.12-3.05 0-6.14-.87-8.87-2.69-2.15-1.43-3.83-3.29-5.01-5.39 2.47 1.4 5.18 2.08 7.87 2.08 5.17 0 10.25-2.5 13.33-7.13l16-24c3.47-5.2 3.49-11.7.58-16.79.34.19.67.39.99.61 7.35 4.9 9.33 14.83 4.43 22.19z"/>
  </g>
  <g>
    <path d="m512.001 224c0 61.76-50.24 112-112 112h-288c-61.76 0-112-50.24-112-112s50.24-112 112-112c5.67 0 11.3.42 16.84 1.26 7.34-63.67 61.56-113.26 127.16-113.26s119.82 49.59 127.16 113.26c5.54-.84 11.17-1.26 16.84-1.26 61.76 0 112 50.24 112 112z" fill="rgb(114, 178, 251)"/>
    <path d="m512.001 224c0 61.86-50.14 112-112 112-6.83 0-13.51-.61-20-1.78 52.31-9.43 92-55.19 92-110.22s-39.69-100.79-92-110.22c6.49-1.17 13.17-1.78 20-1.78 61.86 0 112 50.14 112 112z" fill="rgb(42, 135, 241)"/>
  </g>
  	<path style="fill:rgb(241, 221, 42);" d="M221.057,72.061c1.194,3.839-0.951,7.919-4.79,9.113c-3.839,1.194-7.919-0.951-9.113-4.79
		c-0.07-0.225-0.129-0.453-0.177-0.683l-8-30.24c-1.194-3.839,0.951-7.919,4.79-9.113s7.919,0.951,9.113,4.79
		c0.07,0.225,0.129,0.453,0.177,0.683L221.057,72.061z M167.257,98.381c2.839,2.861,2.821,7.481-0.04,10.32
		c-2.861,2.839-7.481,2.821-10.32-0.04l-22-22.24c-3.091-2.571-3.512-7.162-0.941-10.252c2.571-3.091,7.162-3.512,10.252-0.941
		c0.385,0.321,0.737,0.68,1.048,1.073L167.257,98.381z M352.737,223.101c-3.877-1.105-6.125-5.143-5.02-9.02
		c1.105-3.877,5.143-6.125,9.02-5.02l30.16,8.24c3.877,1.105,6.125,5.143,5.02,9.02c-1.105,3.877-5.143,6.125-9.02,5.02l0,0
		L352.737,223.101z M356.737,163.341c-3.937,0.817-7.79-1.713-8.607-5.65c-0.761-3.67,1.388-7.318,4.967-8.43l30.24-8
		c3.937-0.817,7.79,1.713,8.607,5.65c0.761,3.67-1.388,7.318-4.967,8.43L356.737,163.341z M330.497,109.581
		c-2.861,2.85-7.49,2.841-10.34-0.02c-2.85-2.861-2.841-7.49,0.02-10.34l22.24-22c2.861-2.839,7.481-2.821,10.32,0.04
		c2.839,2.861,2.821,7.481-0.04,10.32L330.497,109.581z M280.777,76.301c-1.105,3.877-5.143,6.125-9.02,5.02
		c-3.877-1.105-6.125-5.143-5.02-9.02l0,0l8.24-30.16c1.105-3.877,5.143-6.125,9.02-5.02c3.877,1.105,6.125,5.143,5.02,9.02
		L280.777,76.301z M272.777,112.301c39.113,15.593,58.179,59.94,42.587,99.053c-2.098,5.264-4.777,10.277-7.987,14.947
		c-21.676-15.633-50.227-17.974-74.16-6.08c-4.736-32.194-26.934-59.107-57.64-69.88c17.102-36.471,59.689-53.263,97.08-38.28
		L272.777,112.301z"/>
</svg>