<svg height="512pt" viewBox="-2 0 512 512.00062" width="512pt" xmlns="http://www.w3.org/2000/svg">
<path d="m249.015625 320.148438c0 7.589843-1.855469 14.28125-4.835937 20.007812-8.054688 15.433594-24.292969 23.824219-34.539063 23.824219h-187.347656c-9.167969 0-17.070313-7.019531-17.582031-16.1875-.449219-7.890625 4.449218-14.714844 11.40625-17.183594 1.226562-.429687 1.832031-1.804687 1.339843-3.011719-9.425781-23.054687 6.402344-47.808594 29.335938-51.003906 4.078125-.566406 8.371093-.453125 12.796875.46875 1.136718.246094 2.292968-.429688 2.621094-1.554688 7.253906-24.867187 30.226562-43.035156 57.4375-43.035156 29.324218 0 53.710937 21.097656 58.832031 48.945313.296875 1.589843 2.070312 2.417969 3.433593 1.558593 28.289063-17.839843 67.101563 2.007813 67.101563 37.171876zm0 0" fill="rgb(42, 135, 241)"/>
<path d="m249.015625 320.148438c0 7.589843-1.855469 14.28125-4.835937 20.007812h-189.210938c-10.132812 0-18.855469-7.742188-19.425781-17.867188-.492188-8.71875 4.917969-16.25 12.589843-18.976562 1.363282-.480469 2.03125-1.984375 1.488282-3.316406-2.6875-6.570313-3.515625-14.726563-2.828125-23.402344 4.078125-.566406 8.371093-.453125 12.796875.46875 1.136718.246094 2.292968-.429688 2.621094-1.554688 7.253906-24.867187 30.226562-43.035156 57.4375-43.035156 29.324218 0 53.710937 21.097656 58.832031 48.945313.296875 1.589843 2.070312 2.417969 3.433593 1.558593 28.289063-17.839843 67.101563 2.007813 67.101563 37.171876zm0 0" fill="rgb(114, 178, 251)"/>



<path d="m508.582031 133.589844c-.152343.800781-.480469 1.601562-1.011719 2.347656-21.628906 30.410156-60.15625 46.453125-98.78125 37.601562-50.019531-11.464843-82.109374-61.003906-72.019531-111.320312 5.289063-26.351562 20.882813-47.839844 41.660157-61.261719.6875-.4375 1.40625-.714843 2.121093-.847656 4.078125-.8125 8.105469 3.042969 6.792969 7.519531-15.441406 52.707032 17.140625 107.296875 70.011719 119.414063 15.007812 3.445312 30 3.125 43.984375-.328125 4.4375-1.09375 8.003906 2.910156 7.242187 6.875zm0 0" fill="rgb(241, 221, 42)"/>
<path d="m508.582031 133.589844c-20.152343 11.773437-44.671875 16.199218-69.210937 10.574218-50.019532-11.453124-82.109375-61.003906-72.015625-111.320312 2.417969-12.027344 6.976562-23.042969 13.195312-32.734375 4.078125-.8125 8.105469 3.042969 6.792969 7.519531-15.441406 52.707032 17.140625 107.296875 70.011719 119.414063 15.007812 3.445312 30 3.125 43.984375-.328125 4.4375-1.09375 8.003906 2.910156 7.242187 6.875zm0 0" fill="rgb(241, 221, 42)"/>

<path d="m335.777344 105.351562c0 8.554688-1.976563 16.148438-5.214844 22.707032-9.34375 19.003906-29.140625 29.363281-41.558594 29.363281h-267.285156c-11.492188 0-21.28125-8.929687-21.703125-20.410156-.441406-12.066407 9.207031-21.996094 21.183594-21.996094h35.550781c2.039062 0 3.472656-1.992187 2.84375-3.929687-10.175781-31.257813 17.351562-63.773438 50.902344-56.964844 1.523437.308594 3.035156-.582032 3.476562-2.074219 8.707032-29.386719 35.925782-50.832031 68.140625-50.832031 8.996094 0 17.601563 1.667968 25.519531 4.722656 22.402344 8.621094 39.339844 28.269531 44.152344 52.289062.488282 2.425782 3.21875 3.601563 5.34375 2.332032 33.503906-20.0625 78.648438 3.464844 78.648438 44.792968zm0 0" fill="rgb(42, 135, 241)"/>
<path d="m335.777344 105.351562c0 8.554688-1.976563 16.148438-5.214844 22.707032h-222.632812c-11.492188 0-21.285157-8.929688-21.707032-20.414063-.441406-12.0625 9.207032-21.996093 21.183594-21.996093h35.554688c2.035156 0 3.472656-1.988282 2.839843-3.925782-10.167969-31.257812 17.351563-63.773437 50.902344-56.957031 1.523437.308594 3.035156-.574219 3.476563-2.0625 1.761718-5.953125 4.28125-11.582031 7.453124-16.765625 22.402344 8.621094 39.339844 28.269531 44.152344 52.289062.488282 2.425782 3.21875 3.601563 5.34375 2.332032 33.503906-20.0625 78.648438 3.464844 78.648438 44.792968zm0 0" fill="rgb(114, 178, 251)"/>

<path d="m507.261719 229.09375c0 11.710938-9.488281 21.199219-21.199219 21.199219h-267.804688c-16.703124 0-46.773437-18.738281-46.773437-52.058594 0-25.65625 17.398437-44.457031 38.605469-50.214844 14.507812-3.945312 30.800781-1.792969 44.53125 8.421875 4.292968-35.132812 34.230468-62.347656 70.53125-62.347656 33.195312 0 61.085937 22.769531 68.882812 53.546875 36.1875-9.582031 66.476563 27.027344 52.152344 60.253906h39.875c8.300781 0 15.492188 4.765625 18.964844 11.722657 1.433594 2.847656 2.234375 6.078124 2.234375 9.476562zm0 0" fill="rgb(42, 135, 241)"/>
<path d="m505.027344 219.617188h-250.570313c-16.691406 0-46.761719-18.738282-46.761719-52.058594 0-6.230469.847657-12.847656 2.394532-19.539063 14.507812-3.945312 30.800781-1.792969 44.53125 8.421875 4.292968-35.132812 34.230468-62.347656 70.53125-62.347656 33.195312 0 61.085937 22.769531 68.882812 53.546875 36.1875-9.582031 66.476563 27.027344 52.152344 60.253906h39.875c8.300781 0 15.492188 4.765625 18.964844 11.722657zm0 0" fill="rgb(114, 178, 251)"/>
</svg>